# Blender v2.79 (sub 0) OBJ File: ''
# www.blender.org
mtllib glass.mtl
o iron_block_Cube.004
v 0.885471 -0.442018 -0.987922
v 0.885471 -0.442018 0.613796
v -0.716247 -0.442018 0.613796
v -0.716247 -0.442018 -0.987922
v 0.885471 1.159700 -0.987921
v 0.885471 1.159700 0.613797
v -0.716248 1.159700 0.613796
v -0.716247 1.159700 -0.987922
vt 0.125052 0.750097
vt 0.125052 0.812626
vt 0.062523 0.812626
vt 0.062523 0.750097
vt 0.125052 0.750097
vt 0.125052 0.812626
vt 0.062523 0.812626
vt 0.062523 0.750097
vt 0.125052 0.812626
vt 0.062523 0.812626
vt 0.062523 0.750097
vt 0.125052 0.750097
vt 0.125052 0.812626
vt 0.062523 0.750097
vt 0.125052 0.750097
vt 0.125052 0.812626
vt 0.062523 0.812626
vt 0.125052 0.812626
vt 0.062523 0.812626
vt 0.062523 0.750097
vn 0.0000 -1.0000 -0.0000
vn 0.0000 1.0000 0.0000
vn 1.0000 0.0000 0.0000
vn -0.0000 -0.0000 1.0000
vn -1.0000 -0.0000 -0.0000
vn 0.0000 0.0000 -1.0000
usemtl glas
s off
f 1/1/1 2/2/1 3/3/1 4/4/1
f 5/5/2 8/6/2 7/7/2 6/8/2
f 1/1/3 5/9/3 6/10/3 2/11/3
f 2/12/4 6/13/4 7/7/4 3/14/4
f 3/15/5 7/16/5 8/17/5 4/4/5
f 5/5/6 1/18/6 4/19/6 8/20/6
