# Blender v2.79 (sub 0) OBJ File: 'floor.blend'
# www.blender.org
mtllib explosion.mtl
o lava_Cube.051
v 3.000000 -1.000000 -1.000000
v 3.000000 -1.000000 1.000000
v 1.000000 -1.000000 1.000000
v 1.000000 -1.000000 -1.000000
v 3.000000 1.000000 -1.000000
v 3.000000 1.000000 1.000001
v 1.000000 1.000000 1.000000
v 1.000000 1.000000 -1.000000
vt 0.812500 0.062500
vt 0.875000 0.062500
vt 0.875000 0.125000
vt 0.812500 0.125000
vt 0.812500 0.062500
vt 0.875000 0.062500
vt 0.875000 0.125000
vt 0.812500 0.125000
vt 0.875000 0.062500
vt 0.875000 0.125000
vt 0.812500 0.125000
vt 0.812500 0.062500
vt 0.875000 0.062500
vt 0.812500 0.125000
vt 0.812500 0.062500
vt 0.875000 0.062500
vt 0.875000 0.125000
vt 0.875000 0.062500
vt 0.875000 0.125000
vt 0.812500 0.125000
vn 0.0000 -1.0000 0.0000
vn 0.0000 1.0000 0.0000
vn 1.0000 0.0000 0.0000
vn -0.0000 -0.0000 1.0000
vn -1.0000 -0.0000 -0.0000
vn 0.0000 0.0000 -1.0000
usemtl lava
s off
f 1/1/1 2/2/1 3/3/1 4/4/1
usemtl lava_1.png
f 5/5/2 8/6/2 7/7/2 6/8/2
f 1/1/3 5/9/3 6/10/3 2/11/3
f 2/12/4 6/13/4 7/7/4 3/14/4
f 3/15/5 7/16/5 8/17/5 4/4/5
f 5/5/6 1/18/6 4/19/6 8/20/6
o lava.001_Cube.002
v 1.000000 -1.000000 -3.000000
v 1.000000 -1.000000 -1.000000
v -1.000000 -1.000000 -1.000000
v -1.000000 -1.000000 -3.000000
v 1.000000 1.000000 -3.000000
v 0.999999 1.000000 -0.999999
v -1.000000 1.000000 -1.000000
v -1.000000 1.000000 -3.000000
vt 0.812500 0.062500
vt 0.875000 0.062500
vt 0.875000 0.125000
vt 0.812500 0.125000
vt 0.812500 0.062500
vt 0.875000 0.062500
vt 0.875000 0.125000
vt 0.812500 0.125000
vt 0.875000 0.062500
vt 0.875000 0.125000
vt 0.812500 0.125000
vt 0.812500 0.062500
vt 0.875000 0.062500
vt 0.812500 0.125000
vt 0.812500 0.062500
vt 0.875000 0.062500
vt 0.875000 0.125000
vt 0.875000 0.062500
vt 0.875000 0.125000
vt 0.812500 0.125000
vn 0.0000 -1.0000 0.0000
vn 0.0000 1.0000 -0.0000
vn 1.0000 0.0000 0.0000
vn -0.0000 -0.0000 1.0000
vn -1.0000 -0.0000 -0.0000
vn 0.0000 0.0000 -1.0000
usemtl lava.001
s off
f 9/21/7 10/22/7 11/23/7 12/24/7
usemtl lava.001_1.png.001
f 13/25/8 16/26/8 15/27/8 14/28/8
f 9/21/9 13/29/9 14/30/9 10/31/9
f 10/32/10 14/33/10 15/27/10 11/34/10
f 11/35/11 15/36/11 16/37/11 12/24/11
f 13/25/12 9/38/12 12/39/12 16/40/12
o lava.002_Cube.003
v -1.000000 -1.000000 -1.000000
v -1.000000 -1.000000 1.000000
v -3.000000 -1.000000 1.000000
v -3.000000 -1.000000 -1.000000
v -1.000000 1.000000 -1.000000
v -1.000001 1.000000 1.000001
v -3.000000 1.000000 1.000000
v -3.000000 1.000000 -1.000000
vt 0.812500 0.062500
vt 0.875000 0.062500
vt 0.875000 0.125000
vt 0.812500 0.125000
vt 0.812500 0.062500
vt 0.875000 0.062500
vt 0.875000 0.125000
vt 0.812500 0.125000
vt 0.812500 0.062500
vt 0.875000 0.062500
vt 0.812500 0.125000
vt 0.812500 0.062500
vt 0.875000 0.062500
vt 0.875000 0.125000
vt 0.812500 0.125000
vt 0.875000 0.062500
vt 0.875000 0.125000
vt 0.812500 0.125000
vt 0.875000 0.062500
vt 0.875000 0.125000
vn 0.0000 1.0000 0.0000
vn 1.0000 -0.0000 0.0000
vn -0.0000 -0.0000 1.0000
vn -1.0000 -0.0000 -0.0000
vn 0.0000 0.0000 -1.0000
vn 0.0000 -1.0000 0.0000
usemtl lava.002
s off
f 21/41/13 24/42/13 23/43/13 22/44/13
f 17/45/14 21/46/14 22/47/14 18/48/14
f 18/49/15 22/50/15 23/43/15 19/51/15
f 19/52/16 23/53/16 24/54/16 20/55/16
f 21/41/17 17/56/17 20/57/17 24/58/17
usemtl lava.002_terrain.png.003
f 17/45/18 18/59/18 19/60/18 20/55/18
o lava.003_Cube.004
v 1.000000 -1.000000 1.000000
v 1.000000 -1.000000 3.000000
v -1.000000 -1.000000 3.000000
v -1.000000 -1.000000 1.000000
v 1.000000 1.000000 1.000000
v 0.999999 1.000000 3.000000
v -1.000000 1.000000 3.000000
v -1.000000 1.000000 1.000000
vt 0.812500 0.062500
vt 0.875000 0.062500
vt 0.875000 0.125000
vt 0.812500 0.125000
vt 0.812500 0.062500
vt 0.875000 0.062500
vt 0.875000 0.125000
vt 0.812500 0.125000
vt 0.875000 0.062500
vt 0.875000 0.125000
vt 0.812500 0.125000
vt 0.812500 0.062500
vt 0.875000 0.062500
vt 0.812500 0.125000
vt 0.812500 0.062500
vt 0.875000 0.062500
vt 0.875000 0.125000
vt 0.875000 0.062500
vt 0.875000 0.125000
vt 0.812500 0.125000
vn 0.0000 -1.0000 0.0000
vn 0.0000 1.0000 -0.0000
vn 1.0000 0.0000 0.0000
vn -0.0000 -0.0000 1.0000
vn -1.0000 -0.0000 -0.0000
vn 0.0000 0.0000 -1.0000
usemtl lava.003
s off
f 25/61/19 26/62/19 27/63/19 28/64/19
usemtl lava.003_1.png.003
f 29/65/20 32/66/20 31/67/20 30/68/20
f 25/61/21 29/69/21 30/70/21 26/71/21
f 26/72/22 30/73/22 31/67/22 27/74/22
f 27/75/23 31/76/23 32/77/23 28/64/23
f 29/65/24 25/78/24 28/79/24 32/80/24
o lava.004_Cube.005
v 1.000000 -1.000000 -1.000000
v 1.000000 -1.000000 1.000000
v -1.000000 -1.000000 1.000000
v -1.000000 -1.000000 -1.000000
v 1.000000 1.000000 -1.000000
v 0.999999 1.000000 1.000001
v -1.000000 1.000000 1.000000
v -1.000000 1.000000 -1.000000
vt 0.812500 0.062500
vt 0.875000 0.062500
vt 0.875000 0.125000
vt 0.812500 0.125000
vt 0.812500 0.062500
vt 0.875000 0.062500
vt 0.875000 0.125000
vt 0.812500 0.125000
vt 0.875000 0.062500
vt 0.875000 0.125000
vt 0.812500 0.125000
vt 0.812500 0.062500
vt 0.875000 0.062500
vt 0.812500 0.125000
vt 0.812500 0.062500
vt 0.875000 0.062500
vt 0.875000 0.125000
vt 0.875000 0.062500
vt 0.875000 0.125000
vt 0.812500 0.125000
vn 0.0000 -1.0000 0.0000
vn 0.0000 1.0000 -0.0000
vn 1.0000 0.0000 0.0000
vn -0.0000 -0.0000 1.0000
vn -1.0000 -0.0000 -0.0000
vn 0.0000 0.0000 -1.0000
usemtl lava.004
s off
f 33/81/25 34/82/25 35/83/25 36/84/25
usemtl lava.004_1.png.004
f 37/85/26 40/86/26 39/87/26 38/88/26
f 33/81/27 37/89/27 38/90/27 34/91/27
f 34/92/28 38/93/28 39/87/28 35/94/28
f 35/95/29 39/96/29 40/97/29 36/84/29
f 37/85/30 33/98/30 36/99/30 40/100/30
