# Blender v2.79 (sub 0) OBJ File: ''
# www.blender.org
mtllib floor2.mtl
o sandstone_Cube.038
v 1.000000 -1.000000 -1.000000
v 1.000000 -1.000000 1.000000
v -1.000000 -1.000000 1.000000
v -1.000000 -1.000000 -1.000000
v 1.000000 1.000000 -1.000000
v 0.999999 1.000000 1.000001
v -1.000000 1.000000 1.000000
v -1.000000 1.000000 -1.000000
vt 0.062500 0.125000
vt 0.062500 0.187500
vt 0.000000 0.187500
vt 0.000000 0.125000
vt 0.062500 0.312500
vt 0.000000 0.312500
vt 0.000000 0.250000
vt 0.062500 0.250000
vt 0.062500 0.187500
vt 0.062500 0.250000
vt 0.000000 0.250000
vt 0.000000 0.187500
vt 0.062500 0.187500
vt 0.062500 0.250000
vt 0.000000 0.250000
vt 0.000000 0.187500
vt 0.000000 0.250000
vt 0.000000 0.187500
vt 0.062500 0.187500
vt 0.062500 0.250000
vn 0.0000 -1.0000 0.0000
vn 0.0000 1.0000 -0.0000
vn 1.0000 0.0000 0.0000
vn -0.0000 -0.0000 1.0000
vn -1.0000 -0.0000 -0.0000
vn 0.0000 0.0000 -1.0000
usemtl coldpot
s off
f 1/1/1 2/2/1 3/3/1 4/4/1
f 5/5/2 8/6/2 7/7/2 6/8/2
f 1/9/3 5/10/3 6/11/3 2/12/3
f 2/2/4 6/8/4 7/7/4 3/3/4
f 3/13/5 7/14/5 8/15/5 4/16/5
f 5/17/6 1/18/6 4/19/6 8/20/6
