# Blender v2.79 (sub 0) OBJ File: ''
# www.blender.org
mtllib grass0.mtl
o Plane.019_Plane.026
v 0.707108 -1.000000 0.707105
v 0.707108 1.000000 0.707106
v -0.707108 1.000000 -0.707105
v -0.707107 -1.000000 -0.707106
v 0.707106 -1.000000 -0.707107
v 0.707105 1.000000 -0.707108
v -0.707106 1.000000 0.707108
v -0.707105 -1.000000 0.707108
v 0.707105 -1.000000 -0.707108
v 0.707106 1.000000 -0.707107
v -0.707105 1.000000 0.707108
v -0.707106 -1.000000 0.707107
v 0.707107 -1.000000 0.707106
v 0.707108 1.000000 0.707105
v -0.707107 1.000000 -0.707106
v -0.707108 -1.000000 -0.707105
vt 0.564062 0.626562
vt 0.623438 0.626562
vt 0.623438 0.685938
vt 0.564062 0.685938
vt 0.564062 0.626562
vt 0.623438 0.626562
vt 0.623438 0.685938
vt 0.564062 0.685938
vt 0.564062 0.626562
vt 0.623438 0.626562
vt 0.623438 0.685938
vt 0.564062 0.685938
vt 0.564062 0.626562
vt 0.623438 0.626562
vt 0.623438 0.685938
vt 0.564062 0.685938
vn 0.7071 0.0000 -0.7071
vn 0.7071 0.0000 0.7071
vn -0.7071 0.0000 -0.7071
vn -0.7071 0.0000 0.7071
usemtl flat.001
s off
f 1/1/1 4/2/1 3/3/1 2/4/1
f 8/5/2 5/6/2 6/7/2 7/8/2
f 9/9/3 12/10/3 11/11/3 10/12/3
f 16/13/4 13/14/4 14/15/4 15/16/4
