# Blender v2.79 (sub 0) OBJ File: ''
# www.blender.org
mtllib pickup2.mtl
o diamond_shovel_Cube.170
v 0.060946 -0.064668 -0.075003
v 0.060946 -0.064668 0.062702
v -0.076763 -0.064668 0.062702
v -0.076763 -0.064668 -0.075003
v 0.060946 0.073037 -0.075003
v 0.060946 0.073037 0.062702
v -0.076763 0.073037 0.062702
v -0.076763 0.073037 -0.075003
v -0.076763 -0.202374 0.062702
v -0.076763 -0.202374 -0.075003
v 0.060946 -0.202374 -0.075003
v 0.060946 -0.202374 0.062702
v -0.214469 -0.064668 -0.075003
v -0.214469 0.073037 -0.075003
v -0.214469 -0.064668 0.062702
v -0.214469 0.073037 0.062702
v -0.214469 0.210743 0.062702
v -0.214469 0.210743 -0.075003
v -0.076763 0.210743 0.062702
v -0.076763 0.210743 -0.075003
v 0.060946 0.210743 -0.075003
v 0.060946 0.210743 0.062702
v 0.198652 0.210743 -0.075003
v 0.198652 0.210743 0.062702
v 0.198652 0.073037 0.062702
v 0.198652 0.073037 -0.075003
v 0.198652 -0.202374 -0.075003
v 0.198652 -0.202374 0.062702
v 0.198652 -0.064668 0.062702
v 0.198652 -0.064668 -0.075003
v 0.336357 0.073037 0.062702
v 0.336357 0.073037 -0.075003
v 0.336357 0.210743 -0.075003
v 0.336357 0.210743 0.062702
v 0.336357 0.348449 0.062702
v 0.336357 0.348449 -0.075003
v 0.198652 0.348449 0.062702
v 0.198652 0.348449 -0.075003
v 0.060946 0.348449 -0.075003
v 0.060946 0.348449 0.062702
v 0.474063 0.210743 0.062702
v 0.474063 0.348449 0.062702
v 0.474063 0.348449 -0.075003
v 0.474063 0.210743 -0.075003
v 0.474063 0.486154 -0.075003
v 0.336357 0.486154 -0.075003
v 0.474063 0.486154 0.062702
v 0.336357 0.486154 0.062702
v 0.198652 0.486154 0.062702
v 0.198652 0.486154 -0.075003
v 0.611769 0.486154 0.062702
v 0.611769 0.348449 0.062702
v 0.611769 0.486154 -0.075003
v 0.611769 0.348449 -0.075003
v 0.474063 0.623860 -0.075003
v 0.611769 0.623860 -0.075003
v 0.611769 0.623860 0.062702
v 0.474063 0.623860 0.062702
v 0.336357 0.623860 -0.075003
v 0.336357 0.623860 0.062702
v 0.749474 0.486154 0.062702
v 0.749474 0.623860 0.062702
v 0.749474 0.623860 -0.075003
v 0.749474 0.486154 -0.075003
v 0.611769 0.761566 -0.075003
v 0.749474 0.761566 -0.075003
v 0.749474 0.761566 0.062702
v 0.611769 0.761566 0.062702
v 0.474063 0.761566 0.062702
v 0.474063 0.761566 -0.075003
v 0.887180 0.761566 0.062702
v 0.887180 0.623860 0.062702
v 0.887180 0.761566 -0.075003
v 0.887180 0.623860 -0.075003
v 0.749474 0.899271 -0.075003
v 0.887180 0.899271 -0.075003
v 0.887180 0.899271 0.062702
v 0.749474 0.899271 0.062702
v 0.611769 0.899271 -0.075003
v 0.611769 0.899271 0.062702
v 1.024886 0.761566 0.062702
v 1.024886 0.899271 0.062702
v 1.024886 0.899271 -0.075003
v 1.024886 0.761566 -0.075003
v 1.162591 0.761566 0.062702
v 1.162591 0.761566 -0.075003
v 1.162591 0.899271 -0.075003
v 1.162591 0.899271 0.062702
v 1.300297 0.899271 0.062702
v 1.300297 0.761566 0.062702
v 1.300297 0.899271 -0.075003
v 1.300297 0.761566 -0.075003
v 1.162591 0.623860 0.062702
v 1.024886 0.623860 0.062702
v 1.162591 0.623860 -0.075003
v 1.024886 0.623860 -0.075003
v 1.162591 1.036977 -0.075003
v 1.300297 1.036977 -0.075003
v 1.300297 1.036977 0.062702
v 1.162591 1.036977 0.062702
v 1.024886 1.036977 0.062702
v 1.024886 1.036977 -0.075003
v 0.887180 1.036977 -0.075003
v 0.887180 1.036977 0.062702
v 0.749474 1.036977 -0.075003
v 0.749474 1.036977 0.062702
v 1.438003 1.036977 0.062702
v 1.438003 0.899271 0.062702
v 1.438003 1.036977 -0.075003
v 1.438003 0.899271 -0.075003
v 1.300297 1.174683 -0.075003
v 1.438003 1.174683 -0.075003
v 1.438003 1.174683 0.062702
v 1.300297 1.174683 0.062702
v 0.887180 1.174683 -0.075003
v 0.749474 1.174683 -0.075003
v 0.887180 1.174683 0.062702
v 0.749474 1.174683 0.062702
v 1.024886 1.174683 0.062702
v 1.024886 1.174683 -0.075003
v 1.162591 1.174683 -0.075003
v 1.162591 1.174683 0.062702
v 0.611769 1.174683 -0.075003
v 0.611769 1.174683 0.062702
v 0.611769 1.036977 0.062702
v 0.611769 1.036977 -0.075003
v 1.575709 1.174683 0.062702
v 1.575709 1.036977 0.062702
v 1.575709 1.174683 -0.075003
v 1.575709 1.036977 -0.075003
v 1.438003 1.312389 -0.075003
v 1.575709 1.312389 -0.075003
v 1.575709 1.312389 0.062702
v 1.438003 1.312389 0.062702
v 1.162591 1.312389 -0.075003
v 1.300297 1.312389 -0.075003
v 1.300297 1.312389 0.062702
v 1.162591 1.312389 0.062702
v 1.024886 1.312389 0.062702
v 1.024886 1.312389 -0.075003
v 0.887180 1.312389 -0.075003
v 0.887180 1.312389 0.062702
v 0.749474 1.312389 -0.075003
v 0.749474 1.312389 0.062702
v 0.887180 1.450094 -0.075003
v 0.887180 1.450094 0.062702
v 1.438003 1.450094 -0.075003
v 1.300297 1.450094 -0.075003
v 1.300297 1.450094 0.062702
v 1.438003 1.450094 0.062702
v 1.024886 1.450094 0.062702
v 1.024886 1.450094 -0.075003
v 1.162591 1.450094 -0.075003
v 1.162591 1.450094 0.062702
v 1.575709 1.450094 0.062702
v 1.575709 1.450094 -0.075003
v 1.024886 1.587800 0.062702
v 1.024886 1.587800 -0.075003
v 1.438003 1.587800 0.062702
v 1.438003 1.587800 -0.075003
v 1.162591 1.587800 -0.075003
v 1.300297 1.587800 -0.075003
v 1.162591 1.587800 0.062702
v 1.300297 1.587800 0.062702
vt 0.203125 0.632812
vt 0.203125 0.636719
vt 0.199219 0.636719
vt 0.199219 0.632812
vt 0.203125 0.636719
vt 0.203125 0.632812
vt 0.199219 0.632812
vt 0.199219 0.636719
vt 0.204691 0.630194
vt 0.205392 0.630194
vt 0.205392 0.629494
vt 0.204691 0.629494
vt 0.203125 0.628906
vt 0.199219 0.628906
vt 0.199219 0.628906
vt 0.203125 0.628906
vt 0.205392 0.629494
vt 0.204691 0.629494
vt 0.195312 0.632812
vt 0.195312 0.636719
vt 0.195312 0.636719
vt 0.195312 0.632812
vt 0.204691 0.630194
vt 0.205392 0.630194
vt 0.204691 0.630895
vt 0.205392 0.630895
vt 0.204691 0.631595
vt 0.205392 0.631595
vt 0.199219 0.640625
vt 0.195312 0.640625
vt 0.195312 0.640625
vt 0.199219 0.640625
vt 0.203125 0.640625
vt 0.203125 0.640625
vt 0.204691 0.631595
vt 0.205392 0.631595
vt 0.205392 0.631595
vt 0.204691 0.631595
vt 0.207031 0.636719
vt 0.207031 0.640625
vt 0.207031 0.640625
vt 0.207031 0.636719
vt 0.205392 0.629494
vt 0.204691 0.629494
vt 0.207031 0.628906
vt 0.207031 0.632812
vt 0.207031 0.632812
vt 0.207031 0.628906
vt 0.205392 0.630194
vt 0.204691 0.630194
vt 0.205392 0.630895
vt 0.204691 0.630895
vt 0.205392 0.630895
vt 0.204691 0.630895
vt 0.210938 0.640625
vt 0.210938 0.636719
vt 0.210938 0.636719
vt 0.210938 0.640625
vt 0.205392 0.631595
vt 0.204691 0.631595
vt 0.210938 0.644531
vt 0.207031 0.644531
vt 0.207031 0.644531
vt 0.210938 0.644531
vt 0.203125 0.644531
vt 0.203125 0.644531
vt 0.204691 0.632295
vt 0.205392 0.632295
vt 0.204691 0.632295
vt 0.205392 0.632295
vt 0.214844 0.640625
vt 0.214844 0.644531
vt 0.214844 0.644531
vt 0.214844 0.640625
vt 0.205392 0.631595
vt 0.204691 0.631595
vt 0.205392 0.632295
vt 0.204691 0.632295
vt 0.210938 0.648438
vt 0.214844 0.648438
vt 0.214844 0.648438
vt 0.210938 0.648438
vt 0.204691 0.632996
vt 0.205392 0.632996
vt 0.207031 0.648438
vt 0.207031 0.648438
vt 0.204691 0.632996
vt 0.205392 0.632996
vt 0.218750 0.644531
vt 0.218750 0.648438
vt 0.218750 0.648438
vt 0.218750 0.644531
vt 0.205392 0.632295
vt 0.204691 0.632295
vt 0.205392 0.632996
vt 0.204691 0.632996
vt 0.214844 0.652344
vt 0.218750 0.652344
vt 0.218750 0.652344
vt 0.214844 0.652344
vt 0.204691 0.633696
vt 0.205392 0.633696
vt 0.210938 0.652344
vt 0.210938 0.652344
vt 0.204691 0.633696
vt 0.205392 0.633696
vt 0.222656 0.648438
vt 0.222656 0.652344
vt 0.222656 0.652344
vt 0.222656 0.648438
vt 0.205392 0.632996
vt 0.204691 0.632996
vt 0.205392 0.633696
vt 0.204691 0.633696
vt 0.218750 0.656250
vt 0.222656 0.656250
vt 0.222656 0.656250
vt 0.218750 0.656250
vt 0.204691 0.634396
vt 0.205392 0.634396
vt 0.214844 0.656250
vt 0.214844 0.656250
vt 0.204691 0.634396
vt 0.205392 0.634396
vt 0.226562 0.652344
vt 0.226562 0.656250
vt 0.226562 0.656250
vt 0.226562 0.652344
vt 0.205392 0.633696
vt 0.204691 0.633696
vt 0.205392 0.634396
vt 0.204691 0.634396
vt 0.222656 0.660156
vt 0.226562 0.660156
vt 0.226562 0.660156
vt 0.222656 0.660156
vt 0.204691 0.635097
vt 0.205392 0.635097
vt 0.218750 0.660156
vt 0.218750 0.660156
vt 0.204691 0.635097
vt 0.205392 0.635097
vt 0.230469 0.656250
vt 0.230469 0.660156
vt 0.230469 0.660156
vt 0.230469 0.656250
vt 0.205392 0.634396
vt 0.204691 0.634396
vt 0.234375 0.660156
vt 0.234375 0.656250
vt 0.234375 0.656250
vt 0.234375 0.660156
vt 0.238281 0.656250
vt 0.238281 0.660156
vt 0.238281 0.660156
vt 0.238281 0.656250
vt 0.244459 0.669275
vt 0.243776 0.669275
vt 0.243776 0.669275
vt 0.244459 0.669275
vt 0.243776 0.668592
vt 0.244459 0.668592
vt 0.230469 0.652344
vt 0.234375 0.652344
vt 0.244459 0.669958
vt 0.243776 0.669958
vt 0.234375 0.652344
vt 0.230469 0.652344
vt 0.244459 0.669275
vt 0.243776 0.669275
vt 0.243776 0.669958
vt 0.244459 0.669958
vt 0.234375 0.664062
vt 0.238281 0.664062
vt 0.238281 0.664062
vt 0.234375 0.664062
vt 0.230469 0.664062
vt 0.230469 0.664062
vt 0.226562 0.664062
vt 0.226562 0.664062
vt 0.204691 0.635797
vt 0.205392 0.635797
vt 0.222656 0.664062
vt 0.222656 0.664062
vt 0.242188 0.660156
vt 0.242188 0.664062
vt 0.242188 0.664062
vt 0.242188 0.660156
vt 0.243776 0.668592
vt 0.244459 0.668592
vt 0.243776 0.667909
vt 0.244459 0.667909
vt 0.238281 0.667969
vt 0.242188 0.667969
vt 0.242188 0.667969
vt 0.238281 0.667969
vt 0.222656 0.667969
vt 0.226562 0.667969
vt 0.226562 0.667969
vt 0.222656 0.667969
vt 0.230469 0.667969
vt 0.230469 0.667969
vt 0.234375 0.667969
vt 0.234375 0.667969
vt 0.244459 0.667226
vt 0.243776 0.667226
vt 0.243776 0.667226
vt 0.244459 0.667226
vt 0.218750 0.667969
vt 0.218750 0.664062
vt 0.218750 0.664062
vt 0.218750 0.667969
vt 0.243776 0.667909
vt 0.244459 0.667909
vt 0.244459 0.667909
vt 0.243776 0.667909
vt 0.246094 0.664062
vt 0.246094 0.667969
vt 0.246094 0.667969
vt 0.246094 0.664062
vt 0.243776 0.667909
vt 0.244459 0.667909
vt 0.243776 0.667226
vt 0.244459 0.667226
vt 0.242188 0.671875
vt 0.246094 0.671875
vt 0.243776 0.666543
vt 0.244459 0.666543
vt 0.246094 0.671875
vt 0.242188 0.671875
vt 0.234375 0.671875
vt 0.238281 0.671875
vt 0.238281 0.671875
vt 0.234375 0.671875
vt 0.230469 0.671875
vt 0.230469 0.671875
vt 0.226562 0.671875
vt 0.226562 0.671875
vt 0.244459 0.666543
vt 0.243776 0.666543
vt 0.222656 0.671875
vt 0.222656 0.671875
vt 0.244459 0.666543
vt 0.243776 0.666543
vt 0.244459 0.665860
vt 0.243776 0.665860
vt 0.238281 0.675781
vt 0.242188 0.675781
vt 0.242188 0.675781
vt 0.238281 0.675781
vt 0.230469 0.675781
vt 0.226562 0.675781
vt 0.226562 0.675781
vt 0.230469 0.675781
vt 0.234375 0.675781
vt 0.234375 0.675781
vt 0.246094 0.675781
vt 0.243776 0.665860
vt 0.244459 0.665860
vt 0.246094 0.675781
vt 0.244459 0.665860
vt 0.243776 0.665860
vt 0.243776 0.665860
vt 0.244459 0.665860
vt 0.244459 0.665177
vt 0.243776 0.665177
vt 0.243776 0.665177
vt 0.244459 0.665177
vt 0.234375 0.679688
vt 0.238281 0.679688
vt 0.238281 0.679688
vt 0.234375 0.679688
vt 0.230469 0.679688
vt 0.230469 0.679688
vt 0.242188 0.679688
vt 0.242188 0.679688
vt 0.243776 0.665177
vt 0.244459 0.665177
vt 0.244459 0.665177
vt 0.243776 0.665177
vn 0.0000 0.0000 1.0000
vn 0.0000 0.0000 -1.0000
vn -1.0000 0.0000 0.0000
vn 0.0000 -1.0000 0.0000
vn 0.0000 1.0000 0.0000
vn 1.0000 0.0000 0.0000
usemtl items.002
s off
f 2/1/1 6/2/1 7/3/1 3/4/1
f 5/5/2 1/6/2 4/7/2 8/8/2
f 3/9/3 4/10/3 10/11/3 9/12/3
f 4/7/2 1/6/2 11/13/2 10/14/2
f 2/1/1 3/4/1 9/15/1 12/16/1
f 11/17/4 12/18/4 9/12/4 10/11/4
f 8/8/2 4/7/2 13/19/2 14/20/2
f 3/4/1 7/3/1 16/21/1 15/22/1
f 4/10/4 3/9/4 15/23/4 13/24/4
f 15/23/3 16/25/3 14/26/3 13/24/3
f 14/26/3 16/25/3 17/27/3 18/28/3
f 16/21/1 7/3/1 19/29/1 17/30/1
f 8/8/2 14/20/2 18/31/2 20/32/2
f 5/5/2 8/8/2 20/32/2 21/33/2
f 7/3/1 6/2/1 22/34/1 19/29/1
f 19/35/5 20/36/5 18/28/5 17/27/5
f 21/37/5 20/36/5 19/35/5 22/38/5
f 22/34/1 6/2/1 25/39/1 24/40/1
f 5/5/2 21/33/2 23/41/2 26/42/2
f 12/18/4 11/17/4 27/43/4 28/44/4
f 2/1/1 12/16/1 28/45/1 29/46/1
f 11/13/2 1/6/2 30/47/2 27/48/2
f 1/6/2 5/5/2 26/42/2 30/47/2
f 6/2/1 2/1/1 29/46/1 25/39/1
f 30/49/6 29/50/6 28/44/6 27/43/6
f 30/49/6 26/51/6 25/52/6 29/50/6
f 25/52/4 26/51/4 32/53/4 31/54/4
f 26/42/2 23/41/2 33/55/2 32/56/2
f 24/40/1 25/39/1 31/57/1 34/58/1
f 31/54/6 32/53/6 33/59/6 34/60/6
f 24/40/1 34/58/1 35/61/1 37/62/1
f 33/55/2 23/41/2 38/63/2 36/64/2
f 23/41/2 21/33/2 39/65/2 38/63/2
f 22/34/1 24/40/1 37/62/1 40/66/1
f 21/37/3 22/38/3 40/67/3 39/68/3
f 39/68/5 40/67/5 37/69/5 38/70/5
f 35/61/1 34/58/1 41/71/1 42/72/1
f 33/55/2 36/64/2 43/73/2 44/74/2
f 34/60/4 33/59/4 44/75/4 41/76/4
f 41/76/6 44/75/6 43/77/6 42/78/6
f 43/73/2 36/64/2 46/79/2 45/80/2
f 35/61/1 42/72/1 47/81/1 48/82/1
f 38/70/3 37/69/3 49/83/3 50/84/3
f 36/64/2 38/63/2 50/85/2 46/79/2
f 37/62/1 35/61/1 48/82/1 49/86/1
f 50/84/5 49/83/5 48/87/5 46/88/5
f 47/81/1 42/72/1 52/89/1 51/90/1
f 43/73/2 45/80/2 53/91/2 54/92/2
f 42/78/4 43/77/4 54/93/4 52/94/4
f 52/94/6 54/93/6 53/95/6 51/96/6
f 53/91/2 45/80/2 55/97/2 56/98/2
f 47/81/1 51/90/1 57/99/1 58/100/1
f 46/88/3 48/87/3 60/101/3 59/102/3
f 48/82/1 47/81/1 58/100/1 60/103/1
f 45/80/2 46/79/2 59/104/2 55/97/2
f 59/102/5 60/101/5 58/105/5 55/106/5
f 57/99/1 51/90/1 61/107/1 62/108/1
f 53/91/2 56/98/2 63/109/2 64/110/2
f 51/96/4 53/95/4 64/111/4 61/112/4
f 61/112/6 64/111/6 63/113/6 62/114/6
f 63/109/2 56/98/2 65/115/2 66/116/2
f 57/99/1 62/108/1 67/117/1 68/118/1
f 55/106/3 58/105/3 69/119/3 70/120/3
f 58/100/1 57/99/1 68/118/1 69/121/1
f 56/98/2 55/97/2 70/122/2 65/115/2
f 70/120/5 69/119/5 68/123/5 65/124/5
f 67/117/1 62/108/1 72/125/1 71/126/1
f 63/109/2 66/116/2 73/127/2 74/128/2
f 62/114/4 63/113/4 74/129/4 72/130/4
f 72/130/6 74/129/6 73/131/6 71/132/6
f 73/127/2 66/116/2 75/133/2 76/134/2
f 67/117/1 71/126/1 77/135/1 78/136/1
f 65/124/3 68/123/3 80/137/3 79/138/3
f 68/118/1 67/117/1 78/136/1 80/139/1
f 66/116/2 65/115/2 79/140/2 75/133/2
f 79/138/5 80/137/5 78/141/5 75/142/5
f 77/135/1 71/126/1 81/143/1 82/144/1
f 73/127/2 76/134/2 83/145/2 84/146/2
f 71/132/4 73/131/4 84/147/4 81/148/4
f 84/146/2 83/145/2 87/149/2 86/150/2
f 82/144/1 81/143/1 85/151/1 88/152/1
f 88/152/1 85/151/1 90/153/1 89/154/1
f 86/150/2 87/149/2 91/155/2 92/156/2
f 85/157/4 86/158/4 92/159/4 90/160/4
f 90/160/6 92/159/6 91/161/6 89/162/6
f 85/151/1 81/143/1 94/163/1 93/164/1
f 86/158/6 85/157/6 93/165/6 95/166/6
f 84/146/2 86/150/2 95/167/2 96/168/2
f 81/169/3 84/170/3 96/171/3 94/172/3
f 94/172/4 96/171/4 95/166/4 93/165/4
f 91/155/2 87/149/2 97/173/2 98/174/2
f 88/152/1 89/154/1 99/175/1 100/176/1
f 82/144/1 88/152/1 100/176/1 101/177/1
f 87/149/2 83/145/2 102/178/2 97/173/2
f 83/145/2 76/134/2 103/179/2 102/178/2
f 77/135/1 82/144/1 101/177/1 104/180/1
f 75/142/3 78/141/3 106/181/3 105/182/3
f 78/136/1 77/135/1 104/180/1 106/183/1
f 76/134/2 75/133/2 105/184/2 103/179/2
f 99/175/1 89/154/1 108/185/1 107/186/1
f 91/155/2 98/174/2 109/187/2 110/188/2
f 89/162/4 91/161/4 110/189/4 108/190/4
f 108/190/6 110/189/6 109/191/6 107/192/6
f 109/187/2 98/174/2 111/193/2 112/194/2
f 99/175/1 107/186/1 113/195/1 114/196/1
f 103/179/2 105/184/2 116/197/2 115/198/2
f 106/183/1 104/180/1 117/199/1 118/200/1
f 104/180/1 101/177/1 119/201/1 117/199/1
f 102/178/2 103/179/2 115/198/2 120/202/2
f 97/173/2 102/178/2 120/202/2 121/203/2
f 101/177/1 100/176/1 122/204/1 119/201/1
f 100/176/1 99/175/1 114/196/1 122/204/1
f 98/174/2 97/173/2 121/203/2 111/193/2
f 118/205/5 116/206/5 123/207/5 124/208/5
f 106/183/1 118/200/1 124/209/1 125/210/1
f 116/197/2 105/184/2 126/211/2 123/212/2
f 105/213/4 106/214/4 125/215/4 126/216/4
f 126/216/3 125/215/3 124/208/3 123/207/3
f 113/195/1 107/186/1 128/217/1 127/218/1
f 109/187/2 112/194/2 129/219/2 130/220/2
f 107/192/4 109/191/4 130/221/4 128/222/4
f 128/222/6 130/221/6 129/223/6 127/224/6
f 129/219/2 112/194/2 131/225/2 132/226/2
f 127/224/6 129/223/6 132/227/6 133/228/6
f 113/195/1 127/218/1 133/229/1 134/230/1
f 111/193/2 121/203/2 135/231/2 136/232/2
f 122/204/1 114/196/1 137/233/1 138/234/1
f 119/201/1 122/204/1 138/234/1 139/235/1
f 121/203/2 120/202/2 140/236/2 135/231/2
f 120/202/2 115/198/2 141/237/2 140/236/2
f 117/199/1 119/201/1 139/235/1 142/238/1
f 116/206/3 118/205/3 144/239/3 143/240/3
f 118/200/1 117/199/1 142/238/1 144/241/1
f 115/198/2 116/197/2 143/242/2 141/237/2
f 114/196/1 113/195/1 134/230/1 137/233/1
f 112/194/2 111/193/2 136/232/2 131/225/2
f 143/240/5 144/239/5 142/243/5 141/244/5
f 141/244/3 142/243/3 146/245/3 145/246/3
f 131/225/2 136/232/2 148/247/2 147/248/2
f 137/233/1 134/230/1 150/249/1 149/250/1
f 142/238/1 139/235/1 151/251/1 146/252/1
f 140/236/2 141/237/2 145/253/2 152/254/2
f 135/231/2 140/236/2 152/254/2 153/255/2
f 139/235/1 138/234/1 154/256/1 151/251/1
f 138/234/1 137/233/1 149/250/1 154/256/1
f 136/232/2 135/231/2 153/255/2 148/247/2
f 134/230/1 133/229/1 155/257/1 150/249/1
f 133/228/6 132/227/6 156/258/6 155/259/6
f 132/226/2 131/225/2 147/248/2 156/260/2
f 145/246/5 146/245/5 151/261/5 152/262/5
f 147/263/5 150/264/5 155/259/5 156/258/5
f 152/262/3 151/261/3 157/265/3 158/266/3
f 150/264/6 147/263/6 160/267/6 159/268/6
f 148/247/2 153/255/2 161/269/2 162/270/2
f 154/256/1 149/250/1 164/271/1 163/272/1
f 151/251/1 154/256/1 163/272/1 157/273/1
f 153/255/2 152/254/2 158/274/2 161/269/2
f 149/250/1 150/249/1 159/275/1 164/271/1
f 147/248/2 148/247/2 162/270/2 160/276/2
f 161/277/5 163/278/5 164/279/5 162/280/5
f 158/266/5 157/265/5 163/278/5 161/277/5
f 162/280/5 164/279/5 159/268/5 160/267/5
